# MagicaVoxel @ Ephtracy

# group
o 

# material
mtllib Propeller-0.mtl
usemtl palette

# normals
vn 0 0 -1
vn 0 0 1
vn -1 0 0
vn 1 0 0
vn 0 -1 0
vn 0 1 0

# texcoords
vt 0.783203 0.5
vt 0.884766 0.5
vt 0.888672 0.5
vt 0.892578 0.5

# verts
v 0.9 -0.3 -0.2
v 1.1 -0.3 -0.2
v 1.2 -0.3 -0.2
v 0.6 -0.2 -0.2
v 0.9 -0.2 -0.2
v 1.2 -0.2 -0.2
v 1.3 -0.2 -0.2
v -0.9 -0.1 -0.2
v -0.4 -0.1 -0.2
v -0.1 -0.1 -0.2
v -1.19209e-07 -0.1 -0.2
v 0.6 -0.1 -0.2
v 1.2 -0.1 -0.2
v 1.3 -0.1 -0.2
v -1.3 0 -0.2
v -1.2 0 -0.2
v -1.1 0 -0.2
v -0.9 0 -0.2
v -0.4 0 -0.2
v -0.1 0 -0.2
v -1.19209e-07 0 -0.2
v 0.0999999 0 -0.2
v 0.4 0 -0.2
v 0.9 0 -0.2
v 1.1 0 -0.2
v 1.2 0 -0.2
v 1.3 0 -0.2
v -1.3 0.1 -0.2
v -1.2 0.1 -0.2
v -0.6 0.1 -0.2
v -1.19209e-07 0.1 -0.2
v 0.0999999 0.1 -0.2
v 0.4 0.1 -0.2
v 0.9 0.1 -0.2
v -1.3 0.2 -0.2
v -1.2 0.2 -0.2
v -0.9 0.2 -0.2
v -0.6 0.2 -0.2
v -1.2 0.3 -0.2
v -1.1 0.3 -0.2
v -0.9 0.3 -0.2
v 0.9 -0.3 -0.1
v 1.1 -0.3 -0.1
v 1.2 -0.3 -0.1
v 0.6 -0.2 -0.1
v 0.9 -0.2 -0.1
v 1.2 -0.2 -0.1
v 1.3 -0.2 -0.1
v -0.9 -0.1 -0.1
v -0.4 -0.1 -0.1
v -1.19209e-07 -0.1 -0.1
v 0.6 -0.1 -0.1
v 1.2 -0.1 -0.1
v 1.3 -0.1 -0.1
v -1.3 0 -0.1
v -1.2 0 -0.1
v -1.1 0 -0.1
v -0.9 0 -0.1
v -0.4 0 -0.1
v -0.1 0 -0.1
v -1.19209e-07 0 -0.1
v 0.0999999 0 -0.1
v 0.4 0 -0.1
v 0.9 0 -0.1
v 1.1 0 -0.1
v 1.2 0 -0.1
v 1.3 0 -0.1
v -1.3 0.1 -0.1
v -1.2 0.1 -0.1
v -0.6 0.1 -0.1
v -1.19209e-07 0.1 -0.1
v 0.4 0.1 -0.1
v 0.9 0.1 -0.1
v -1.3 0.2 -0.1
v -1.2 0.2 -0.1
v -0.9 0.2 -0.1
v -0.6 0.2 -0.1
v -1.2 0.3 -0.1
v -1.1 0.3 -0.1
v -0.9 0.3 -0.1
v -0.1 -0.1 0.1
v -1.19209e-07 -0.1 0.1
v -0.1 0 0.1
v -1.19209e-07 0 0.1
v 0.0999999 0 0.1
v -1.19209e-07 0.1 0.1
v 0.0999999 0.1 0.1
v -1.3 0 -0.2
v -1.3 0.1 -0.2
v -1.3 0.2 -0.2
v -1.3 0 -0.1
v -1.3 0.1 -0.1
v -1.3 0.2 -0.1
v -1.2 0.2 -0.2
v -1.2 0.3 -0.2
v -1.2 0.2 -0.1
v -1.2 0.3 -0.1
v -0.9 -0.1 -0.2
v -0.9 0 -0.2
v -0.9 -0.1 -0.1
v -0.9 0 -0.1
v -0.1 -0.1 -0.2
v -0.1 0 -0.2
v -0.1 0 -0.1
v -0.1 -0.1 0
v -0.1 0 0
v -0.1 -0.1 0.1
v -0.1 0 0.1
v -1.19209e-07 0 -0.1
v -1.19209e-07 0.1 -0.1
v -1.19209e-07 0 0
v -1.19209e-07 0.1 0
v -1.19209e-07 0 0.1
v -1.19209e-07 0.1 0.1
v 0.4 0 -0.2
v 0.4 0.1 -0.2
v 0.4 0 -0.1
v 0.4 0.1 -0.1
v 0.6 -0.2 -0.2
v 0.6 -0.1 -0.2
v 0.6 -0.2 -0.1
v 0.6 -0.1 -0.1
v 0.9 -0.3 -0.2
v 0.9 -0.2 -0.2
v 0.9 -0.3 -0.1
v 0.9 -0.2 -0.1
v -0.9 0.2 -0.2
v -0.9 0.3 -0.2
v -0.9 0.2 -0.1
v -0.9 0.3 -0.1
v -0.6 0.1 -0.2
v -0.6 0.2 -0.2
v -0.6 0.1 -0.1
v -0.6 0.2 -0.1
v -0.4 -0.1 -0.2
v -0.4 0 -0.2
v -0.4 -0.1 -0.1
v -0.4 0 -0.1
v -1.19209e-07 -0.1 -0.1
v -1.19209e-07 0 -0.1
v -1.19209e-07 -0.1 0
v -1.19209e-07 0 0
v -1.19209e-07 -0.1 0.1
v -1.19209e-07 0 0.1
v 0.0999999 0 -0.2
v 0.0999999 0.1 -0.2
v 0.0999999 0 -0.1
v 0.0999999 0 0
v 0.0999999 0.1 0
v 0.0999999 0 0.1
v 0.0999999 0.1 0.1
v 0.9 0 -0.2
v 0.9 0.1 -0.2
v 0.9 0 -0.1
v 0.9 0.1 -0.1
v 1.2 -0.3 -0.2
v 1.2 -0.2 -0.2
v 1.2 -0.3 -0.1
v 1.2 -0.2 -0.1
v 1.3 -0.2 -0.2
v 1.3 -0.1 -0.2
v 1.3 0 -0.2
v 1.3 -0.2 -0.1
v 1.3 -0.1 -0.1
v 1.3 0 -0.1
v 0.9 -0.3 -0.2
v 0.9 -0.3 -0.1
v 1.1 -0.3 -0.2
v 1.1 -0.3 -0.1
v 1.2 -0.3 -0.2
v 1.2 -0.3 -0.1
v 0.6 -0.2 -0.2
v 0.6 -0.2 -0.1
v 0.9 -0.2 -0.2
v 0.9 -0.2 -0.1
v 1.2 -0.2 -0.2
v 1.2 -0.2 -0.1
v 1.3 -0.2 -0.2
v 1.3 -0.2 -0.1
v -0.9 -0.1 -0.2
v -0.9 -0.1 -0.1
v -0.4 -0.1 -0.2
v -0.4 -0.1 -0.1
v -0.1 -0.1 -0.2
v -0.1 -0.1 0
v -0.1 -0.1 0.1
v -1.19209e-07 -0.1 -0.2
v -1.19209e-07 -0.1 -0.1
v -1.19209e-07 -0.1 0
v -1.19209e-07 -0.1 0.1
v 0.6 -0.1 -0.2
v 0.6 -0.1 -0.1
v -1.3 0 -0.2
v -1.3 0 -0.1
v -1.2 0 -0.2
v -1.2 0 -0.1
v -1.1 0 -0.2
v -1.1 0 -0.1
v -0.9 0 -0.2
v -0.9 0 -0.1
v -0.4 0 -0.2
v -0.4 0 -0.1
v -0.1 0 -0.2
v -0.1 0 -0.1
v -1.19209e-07 0 -0.1
v -1.19209e-07 0 0
v -1.19209e-07 0 0.1
v 0.0999999 0 -0.1
v 0.0999999 0 0
v 0.0999999 0 0.1
v -0.1 0 -0.1
v -0.1 0 0
v -0.1 0 0.1
v -1.19209e-07 0 -0.1
v -1.19209e-07 0 0
v -1.19209e-07 0 0.1
v 0.0999999 0 -0.2
v 0.0999999 0 -0.1
v 0.4 0 -0.2
v 0.4 0 -0.1
v 0.9 0 -0.2
v 0.9 0 -0.1
v 1.1 0 -0.2
v 1.1 0 -0.1
v 1.2 0 -0.2
v 1.2 0 -0.1
v 1.3 0 -0.2
v 1.3 0 -0.1
v -0.6 0.1 -0.2
v -0.6 0.1 -0.1
v -1.19209e-07 0.1 -0.2
v -1.19209e-07 0.1 -0.1
v -1.19209e-07 0.1 0
v -1.19209e-07 0.1 0.1
v 0.0999999 0.1 -0.2
v 0.0999999 0.1 0
v 0.0999999 0.1 0.1
v 0.4 0.1 -0.2
v 0.4 0.1 -0.1
v 0.9 0.1 -0.2
v 0.9 0.1 -0.1
v -1.3 0.2 -0.2
v -1.3 0.2 -0.1
v -1.2 0.2 -0.2
v -1.2 0.2 -0.1
v -0.9 0.2 -0.2
v -0.9 0.2 -0.1
v -0.6 0.2 -0.2
v -0.6 0.2 -0.1
v -1.2 0.3 -0.2
v -1.2 0.3 -0.1
v -1.1 0.3 -0.2
v -1.1 0.3 -0.1
v -0.9 0.3 -0.2
v -0.9 0.3 -0.1

# faces
f 5/4/1 2/4/1 1/4/1
f 6/2/1 3/2/1 2/2/1
f 12/4/1 5/4/1 4/4/1
f 13/2/1 6/2/1 2/2/1
f 13/2/1 7/2/1 6/2/1
f 14/2/1 7/2/1 13/2/1
f 18/4/1 9/4/1 8/4/1
f 19/4/1 9/4/1 18/4/1
f 20/3/1 11/3/1 10/3/1
f 21/4/1 12/4/1 11/4/1
f 21/3/1 11/3/1 20/3/1
f 22/4/1 12/4/1 21/4/1
f 23/4/1 12/4/1 22/4/1
f 24/4/1 2/4/1 5/4/1
f 24/4/1 12/4/1 23/4/1
f 24/4/1 5/4/1 12/4/1
f 25/2/1 13/2/1 2/2/1
f 25/4/1 2/4/1 24/4/1
f 26/1/1 14/1/1 13/1/1
f 26/2/1 13/2/1 25/2/1
f 27/1/1 14/1/1 26/1/1
f 28/1/1 16/1/1 15/1/1
f 29/2/1 17/2/1 16/2/1
f 29/1/1 16/1/1 28/1/1
f 30/4/1 19/4/1 18/4/1
f 30/4/1 20/4/1 19/4/1
f 30/4/1 21/4/1 20/4/1
f 30/4/1 18/4/1 17/4/1
f 31/3/1 22/3/1 21/3/1
f 31/4/1 21/4/1 30/4/1
f 32/3/1 22/3/1 31/3/1
f 33/4/1 24/4/1 23/4/1
f 34/4/1 24/4/1 33/4/1
f 35/2/1 29/2/1 28/2/1
f 36/2/1 17/2/1 29/2/1
f 36/2/1 29/2/1 35/2/1
f 37/4/1 30/4/1 17/4/1
f 38/4/1 30/4/1 37/4/1
f 39/2/1 17/2/1 36/2/1
f 40/4/1 37/4/1 17/4/1
f 40/2/1 17/2/1 39/2/1
f 41/4/1 37/4/1 40/4/1
f 42/4/2 43/4/2 46/4/2
f 43/2/2 44/2/2 47/2/2
f 45/4/2 46/4/2 52/4/2
f 43/2/2 47/2/2 53/2/2
f 47/2/2 48/2/2 53/2/2
f 53/2/2 48/2/2 54/2/2
f 49/4/2 50/4/2 58/4/2
f 58/4/2 50/4/2 59/4/2
f 51/4/2 52/4/2 61/4/2
f 61/4/2 52/4/2 62/4/2
f 62/4/2 52/4/2 63/4/2
f 46/4/2 43/4/2 64/4/2
f 63/4/2 52/4/2 64/4/2
f 52/4/2 46/4/2 64/4/2
f 43/2/2 53/2/2 65/2/2
f 64/4/2 43/4/2 65/4/2
f 53/1/2 54/1/2 66/1/2
f 65/2/2 53/2/2 66/2/2
f 66/1/2 54/1/2 67/1/2
f 55/1/2 56/1/2 68/1/2
f 56/2/2 57/2/2 69/2/2
f 68/1/2 56/1/2 69/1/2
f 59/4/2 60/4/2 70/4/2
f 60/4/2 61/4/2 70/4/2
f 58/4/2 59/4/2 70/4/2
f 57/4/2 58/4/2 70/4/2
f 70/4/2 61/4/2 71/4/2
f 63/4/2 64/4/2 72/4/2
f 72/4/2 64/4/2 73/4/2
f 68/2/2 69/2/2 74/2/2
f 69/2/2 57/2/2 75/2/2
f 74/2/2 69/2/2 75/2/2
f 57/4/2 70/4/2 76/4/2
f 76/4/2 70/4/2 77/4/2
f 75/2/2 57/2/2 78/2/2
f 57/4/2 76/4/2 79/4/2
f 78/2/2 57/2/2 79/2/2
f 79/4/2 76/4/2 80/4/2
f 81/4/2 82/4/2 83/4/2
f 83/4/2 82/4/2 84/4/2
f 84/4/2 85/4/2 86/4/2
f 86/4/2 85/4/2 87/4/2
f 91/1/3 89/1/3 88/1/3
f 92/2/3 90/2/3 89/2/3
f 92/1/3 89/1/3 91/1/3
f 93/2/3 90/2/3 92/2/3
f 96/2/3 95/2/3 94/2/3
f 97/2/3 95/2/3 96/2/3
f 100/4/3 99/4/3 98/4/3
f 101/4/3 99/4/3 100/4/3
f 104/3/3 103/3/3 102/3/3
f 105/3/3 104/3/3 102/3/3
f 106/3/3 104/3/3 105/3/3
f 107/4/3 106/4/3 105/4/3
f 108/4/3 106/4/3 107/4/3
f 111/3/3 110/3/3 109/3/3
f 112/3/3 110/3/3 111/3/3
f 113/4/3 112/4/3 111/4/3
f 114/4/3 112/4/3 113/4/3
f 117/4/3 116/4/3 115/4/3
f 118/4/3 116/4/3 117/4/3
f 121/4/3 120/4/3 119/4/3
f 122/4/3 120/4/3 121/4/3
f 125/4/3 124/4/3 123/4/3
f 126/4/3 124/4/3 125/4/3
f 127/4/4 128/4/4 129/4/4
f 129/4/4 128/4/4 130/4/4
f 131/4/4 132/4/4 133/4/4
f 133/4/4 132/4/4 134/4/4
f 135/4/4 136/4/4 137/4/4
f 137/4/4 136/4/4 138/4/4
f 139/3/4 140/3/4 141/3/4
f 141/3/4 140/3/4 142/3/4
f 141/4/4 142/4/4 143/4/4
f 143/4/4 142/4/4 144/4/4
f 145/3/4 146/3/4 147/3/4
f 147/3/4 146/3/4 148/3/4
f 148/3/4 146/3/4 149/3/4
f 148/4/4 149/4/4 150/4/4
f 150/4/4 149/4/4 151/4/4
f 152/4/4 153/4/4 154/4/4
f 154/4/4 153/4/4 155/4/4
f 156/2/4 157/2/4 158/2/4
f 158/2/4 157/2/4 159/2/4
f 160/2/4 161/2/4 163/2/4
f 161/1/4 162/1/4 164/1/4
f 163/2/4 161/2/4 164/2/4
f 164/1/4 162/1/4 165/1/4
f 168/4/5 167/4/5 166/4/5
f 169/4/5 167/4/5 168/4/5
f 170/2/5 169/2/5 168/2/5
f 171/2/5 169/2/5 170/2/5
f 174/4/5 173/4/5 172/4/5
f 175/4/5 173/4/5 174/4/5
f 178/2/5 177/2/5 176/2/5
f 179/2/5 177/2/5 178/2/5
f 182/4/5 181/4/5 180/4/5
f 183/4/5 181/4/5 182/4/5
f 187/3/5 185/3/5 184/3/5
f 188/3/5 185/3/5 187/3/5
f 189/4/5 186/4/5 185/4/5
f 189/3/5 185/3/5 188/3/5
f 190/4/5 186/4/5 189/4/5
f 191/4/5 188/4/5 187/4/5
f 192/4/5 188/4/5 191/4/5
f 195/1/5 194/1/5 193/1/5
f 196/1/5 194/1/5 195/1/5
f 197/2/5 196/2/5 195/2/5
f 198/2/5 196/2/5 197/2/5
f 199/4/5 198/4/5 197/4/5
f 200/4/5 198/4/5 199/4/5
f 203/4/5 202/4/5 201/4/5
f 204/4/5 202/4/5 203/4/5
f 208/3/5 206/3/5 205/3/5
f 209/4/5 207/4/5 206/4/5
f 209/3/5 206/3/5 208/3/5
f 210/4/5 207/4/5 209/4/5
f 211/3/6 212/3/6 214/3/6
f 212/4/6 213/4/6 215/4/6
f 214/3/6 212/3/6 215/3/6
f 215/4/6 213/4/6 216/4/6
f 217/4/6 218/4/6 219/4/6
f 219/4/6 218/4/6 220/4/6
f 221/4/6 222/4/6 223/4/6
f 223/4/6 222/4/6 224/4/6
f 223/2/6 224/2/6 225/2/6
f 225/2/6 224/2/6 226/2/6
f 225/1/6 226/1/6 227/1/6
f 227/1/6 226/1/6 228/1/6
f 229/4/6 230/4/6 231/4/6
f 231/4/6 230/4/6 232/4/6
f 231/3/6 232/3/6 235/3/6
f 232/3/6 233/3/6 235/3/6
f 233/4/6 234/4/6 236/4/6
f 235/3/6 233/3/6 236/3/6
f 236/4/6 234/4/6 237/4/6
f 238/4/6 239/4/6 240/4/6
f 240/4/6 239/4/6 241/4/6
f 242/2/6 243/2/6 244/2/6
f 244/2/6 243/2/6 245/2/6
f 246/4/6 247/4/6 248/4/6
f 248/4/6 247/4/6 249/4/6
f 250/2/6 251/2/6 252/2/6
f 252/2/6 251/2/6 253/2/6
f 252/4/6 253/4/6 254/4/6
f 254/4/6 253/4/6 255/4/6
